<?xml version="1.0" encoding="UTF-8" standalone="no"?>
<svg
   width="768"
   height="1024"
   viewBox="0 0 768 1024"
   version="1.1"
   id="svg8"
   inkscape:version="1.2 (dc2aedaf03, 2022-05-15)"
   sodipodi:docname="slangespillet.svg"
   xmlns:inkscape="http://www.inkscape.org/namespaces/inkscape"
   xmlns:sodipodi="http://sodipodi.sourceforge.net/DTD/sodipodi-0.dtd"
   xmlns:xlink="http://www.w3.org/1999/xlink"
   xmlns="http://www.w3.org/2000/svg"
   xmlns:svg="http://www.w3.org/2000/svg"
   xmlns:rdf="http://www.w3.org/1999/02/22-rdf-syntax-ns#"
   xmlns:cc="http://creativecommons.org/ns#"
   xmlns:dc="http://purl.org/dc/elements/1.1/">
  <defs
     id="defs2">
    <linearGradient
       id="linearGradient1923"
       inkscape:collect="always">
      <stop
         id="stop1919"
         offset="0"
         style="stop-color:#e8e947;stop-opacity:1;" />
      <stop
         id="stop1921"
         offset="1"
         style="stop-color:#d0d119;stop-opacity:1" />
    </linearGradient>
    <inkscape:path-effect
       effect="simplify"
       id="path-effect1004"
       is_visible="true"
       lpeversion="1"
       steps="1"
       threshold="0.00102703"
       smooth_angles="360"
       helper_size="0"
       simplify_individual_paths="false"
       simplify_just_coalesce="false" />
    <inkscape:path-effect
       effect="simplify"
       id="path-effect1002"
       is_visible="true"
       lpeversion="1"
       steps="1"
       threshold="0.00102703"
       smooth_angles="360"
       helper_size="0"
       simplify_individual_paths="false"
       simplify_just_coalesce="false" />
    <inkscape:path-effect
       effect="simplify"
       id="path-effect1000"
       is_visible="true"
       lpeversion="1"
       steps="1"
       threshold="0.00102703"
       smooth_angles="360"
       helper_size="0"
       simplify_individual_paths="false"
       simplify_just_coalesce="false" />
    <inkscape:path-effect
       effect="simplify"
       id="path-effect998"
       is_visible="true"
       lpeversion="1"
       steps="1"
       threshold="0.00102703"
       smooth_angles="360"
       helper_size="0"
       simplify_individual_paths="false"
       simplify_just_coalesce="false" />
    <inkscape:path-effect
       simplify_just_coalesce="false"
       simplify_individual_paths="false"
       helper_size="0"
       smooth_angles="360"
       threshold="0.00102703"
       steps="1"
       lpeversion="1"
       is_visible="true"
       id="path-effect951"
       effect="simplify" />
    <inkscape:path-effect
       simplify_just_coalesce="false"
       simplify_individual_paths="false"
       helper_size="0"
       smooth_angles="360"
       threshold="0.00102703"
       steps="1"
       lpeversion="1"
       is_visible="true"
       id="path-effect947"
       effect="simplify" />
    <inkscape:path-effect
       simplify_just_coalesce="false"
       simplify_individual_paths="false"
       helper_size="0"
       smooth_angles="360"
       threshold="0.00102703"
       steps="1"
       lpeversion="1"
       is_visible="true"
       id="path-effect943"
       effect="simplify" />
    <inkscape:path-effect
       simplify_just_coalesce="false"
       simplify_individual_paths="false"
       helper_size="0"
       smooth_angles="360"
       threshold="0.00102703"
       steps="1"
       lpeversion="1"
       is_visible="true"
       id="path-effect939"
       effect="simplify" />
    <inkscape:path-effect
       simplify_just_coalesce="false"
       simplify_individual_paths="false"
       helper_size="0"
       smooth_angles="360"
       threshold="0.00102703"
       steps="1"
       lpeversion="1"
       is_visible="true"
       id="path-effect4102"
       effect="simplify" />
    <inkscape:path-effect
       simplify_just_coalesce="false"
       simplify_individual_paths="false"
       helper_size="0"
       smooth_angles="360"
       threshold="0.00102703"
       steps="1"
       lpeversion="1"
       is_visible="true"
       id="path-effect871"
       effect="simplify" />
    <inkscape:path-effect
       simplify_just_coalesce="false"
       simplify_individual_paths="false"
       helper_size="0"
       smooth_angles="360"
       threshold="0.00102703"
       steps="1"
       lpeversion="1"
       is_visible="true"
       id="path-effect1108"
       effect="simplify" />
    <inkscape:path-effect
       effect="simplify"
       id="path-effect89"
       is_visible="true"
       lpeversion="1"
       steps="1"
       threshold="0.00102703"
       smooth_angles="360"
       helper_size="0"
       simplify_individual_paths="false"
       simplify_just_coalesce="false" />
    <inkscape:path-effect
       effect="simplify"
       id="path-effect85"
       is_visible="true"
       lpeversion="1"
       steps="1"
       threshold="0.00102703"
       smooth_angles="360"
       helper_size="0"
       simplify_individual_paths="false"
       simplify_just_coalesce="false" />
    <radialGradient
       gradientUnits="userSpaceOnUse"
       gradientTransform="matrix(0.01282899,0.72887767,-0.67520988,0.01188437,209.45226,10.054516)"
       r="16"
       fy="142.47528"
       fx="186.63266"
       cy="142.47528"
       cx="186.63266"
       id="radialGradient1925"
       xlink:href="#linearGradient1923"
       inkscape:collect="always" />
  </defs>
  <sodipodi:namedview
     inkscape:snap-global="true"
     id="base"
     pagecolor="#ffffff"
     bordercolor="#666666"
     borderopacity="1.0"
     inkscape:pageopacity="0.0"
     inkscape:pageshadow="2"
     inkscape:zoom="1"
     inkscape:cx="367"
     inkscape:cy="404"
     inkscape:document-units="px"
     inkscape:current-layer="layer1"
     inkscape:document-rotation="0"
     showgrid="false"
     units="px"
     inkscape:showpageshadow="false"
     inkscape:pagecheckerboard="true"
     inkscape:window-width="2560"
     inkscape:window-height="1377"
     inkscape:window-x="1912"
     inkscape:window-y="1072"
     inkscape:window-maximized="1"
     inkscape:snap-bbox="true"
     inkscape:deskcolor="#d1d1d1">
    <inkscape:grid
       type="xygrid"
       id="grid917"
       dotted="true" />
  </sodipodi:namedview>
  <metadata
     id="metadata5">
    <rdf:RDF>
      <cc:Work
         rdf:about="">
        <dc:format>image/svg+xml</dc:format>
        <dc:type
           rdf:resource="http://purl.org/dc/dcmitype/StillImage" />
      </cc:Work>
    </rdf:RDF>
  </metadata>
  <g
     inkscape:label="fliser"
     id="layer2"
     inkscape:groupmode="layer"
     style="display:inline" />
  <g
     inkscape:label="objekter"
     id="layer1"
     style="display:inline"
     inkscape:groupmode="layer">
    <rect
       inkscape:label="papir"
       style="fill:#00ff00;fill-opacity:1;stroke:none;stroke-width:0.694266;stroke-miterlimit:4;stroke-dasharray:none"
       id="rect971"
       width="31.999998"
       height="24.639866"
       x="0"
       y="7.3601336"
       ry="1.98175" />
    <path
       inkscape:label="band"
       id="rect973-3"
       style="display:inline;fill:#ff0000;fill-opacity:1;stroke:none;stroke-width:0.601251;stroke-miterlimit:4;stroke-dasharray:none"
       d="m 17.370328,3.2427757 c -1.074875,-0.1863836 2.603037,-3.46574659 -1.721342,-3.230729 -3.32107,-0.0140091 -0.340838,2.6808285 -1.381042,3.1423534 -1.514854,0.6721209 -3.08149,-4.2310222 -4.70617,-1.5958074 -1.3145348,2.132162 4.76381,5.8015419 4.76381,5.8015419 V 18.390771 H 3.2e-6 v 2.578592 H 14.325584 V 32 h 3.348835 V 20.969363 H 32 V 18.390771 H 17.674419 V 7.3601346 c 0,0 6.038892,-3.1515431 5.351743,-5.6655988 -2.042621,-1.48840266 -4.933675,1.6146878 -5.655834,1.5482399 z"
       sodipodi:nodetypes="ccascccccccccccccc" />
    <g
       inkscape:label="snegle-kort"
       style="display:inline"
       id="g1478">
      <g
         style="clip-rule:evenodd;fill-rule:evenodd;stroke-linecap:round;stroke-linejoin:round"
         id="g1408"
         opacity="1"
         transform="matrix(0.04289232,0.00215797,-0.00214615,0.04361512,180.89877,-18.313938)">
        <path
           id="path1384"
           stroke-linejoin="round"
           opacity="1"
           fill-opacity="0"
           stroke-linecap="round"
           fill="#335289"
           d="m 1779.86,1204 c 0,-3.23 0,-6.45 0,-9.67"
           stroke-width="30.95"
           stroke="#000000" />
        <path
           id="path1386"
           stroke-linejoin="round"
           opacity="1"
           fill-opacity="0"
           stroke-linecap="round"
           fill="#335289"
           d="m 1799.19,1155.67 c -10.03,5.01 -7.38,-0.06 -9.67,-7.25 -10.58,-33.25 -21.3,-66.5 -33.83,-99.07 -6.85,-17.82 -19.49,-33.01 -26.58,-50.744 -6.53,-16.333 -8.32,-34.272 -14.5,-50.743 -4.07,-10.877 -12.71,-19.445 -19.33,-28.996 -11.56,-16.706 -23.07,-33.538 -33.83,-50.744 -4.93,-7.892 -6.58,-10.133 -14.49,-16.914 -2.21,-1.89 -5.2,-2.779 -7.25,-4.833 -1.28,-1.273 3.22,1.611 4.83,2.417"
           stroke-width="30.95"
           stroke="#000000" />
        <path
           id="path1388"
           stroke-linejoin="round"
           opacity="1"
           fill-opacity="0"
           stroke-linecap="round"
           fill="#335289"
           d="m 1820.93,1126.67 c -1.61,-1.61 -4.25,-2.63 -4.83,-4.83 -9.17,-35.17 -16.14,-70.87 -24.16,-106.32 -10.11,-44.625 -20.96,-94.075 -50.75,-130.482 -10.01,-12.24 -25.79,-24.821 -38.66,-33.829 -2.95,-2.066 -6.78,-2.671 -9.66,-4.833 -8.05,-6.037 -10.71,-15.018 -19.33,-19.331"
           stroke-width="30.95"
           stroke="#000000" />
        <path
           id="path1390"
           stroke-linejoin="round"
           opacity="1"
           fill-opacity="0"
           stroke-linecap="round"
           fill="#335289"
           d="m 1859.6,1136.34 c 0.8,-12.08 5.96,-24.67 2.41,-36.25 -12.05,-39.33 -32.94,-75.41 -48.33,-113.565 -10.09,-25.045 -16.88,-51.32 -24.16,-77.324 -3.32,-11.864 -5.04,-24.123 -7.25,-36.245 -0.59,-3.267 -0.71,-6.818 -2.41,-9.665 -2.08,-3.454 -6.82,-4.402 -9.67,-7.249"
           stroke-width="30.95"
           stroke="#000000" />
        <path
           id="path1392"
           stroke-linejoin="round"
           opacity="1"
           fill-opacity="0"
           stroke-linecap="round"
           fill="#335289"
           d="m 1891.01,1131.51 c 0,-3.23 0.88,-6.57 0,-9.67 -8.82,-30.86 -19.63,-61.12 -29,-91.82 -7.89,-25.87 -18.84,-64.329 -24.16,-91.822 -4.86,-25.082 -4.49,-53.309 -14.5,-77.324 -8.74,-20.986 -29,-33.362 -29,-57.992"
           stroke-width="30.95"
           stroke="#000000" />
        <path
           id="path1394"
           stroke-linejoin="round"
           opacity="1"
           fill-opacity="0"
           stroke-linecap="round"
           fill="#335289"
           d="m 1917.59,1117.01 c -2.42,-1.61 -6.19,-2.13 -7.25,-4.84 -13.65,-34.86 -24.06,-70.91 -36.25,-106.31 -11.32,-32.893 -27.45,-65.37 -36.24,-99.075 -6.41,-24.57 -7.86,-49.554 -19.33,-72.49"
           stroke-width="30.95"
           stroke="#000000" />
        <path
           id="path1396"
           stroke-linejoin="round"
           opacity="1"
           fill-opacity="0"
           stroke-linecap="round"
           fill="#335289"
           d="m 1936.92,1121.84 c -0.81,-1.61 -2.19,-3.05 -2.42,-4.83 -3.82,-30.54 -4.25,-61.53 -9.66,-91.82 -3.27,-18.31 -12.88,-35.011 -16.92,-53.163 -4.11,-18.507 -9.46,-36.8 -12.08,-55.577 -6.83,-48.979 2.42,-98.326 2.42,-147.397"
           stroke-width="30.95"
           stroke="#000000" />
        <path
           id="path1398"
           stroke-linejoin="round"
           opacity="1"
           fill-opacity="0"
           stroke-linecap="round"
           fill="#335289"
           d="m 1953.83,1119.42 c -0.8,-1.61 -2.12,-3.05 -2.41,-4.83 -5.36,-32.13 -10.24,-64.35 -14.5,-96.65 -5.62,-42.513 5.12,-81.477 12.08,-123.237 3.33,-20.004 8.32,-40.156 7.25,-60.408 -0.27,-5.151 -5.05,-9.776 -9.67,-12.082"
           stroke-width="30.95"
           stroke="#000000" />
        <path
           id="path1400"
           stroke-linejoin="round"
           opacity="1"
           fill-opacity="0"
           stroke-linecap="round"
           fill="#335289"
           d="m 1992.49,1095.26 c -2.54,-5.09 -1.18,-11.35 -2.41,-16.91 -7.21,-32.42 -15.04,-64.73 -24.17,-96.658 -6.59,-23.087 -22.97,-39.03 -36.24,-57.992 -7.22,-10.308 -14.89,-20.495 -24.16,-28.997 -7.61,-6.97 -16.87,-12.037 -24.17,-19.33 -9.83,-9.834 -16.14,-22.569 -28.99,-28.997"
           stroke-width="30.95"
           stroke="#000000" />
        <path
           id="path1402"
           stroke-linejoin="round"
           opacity="1"
           fill-opacity="0"
           stroke-linecap="round"
           fill="#335289"
           d="m 1982.83,1124.26 c -6.66,-6.66 -9.67,-19.46 -9.67,-29 0,-33.03 1.22,-66.06 2.42,-99.07 0.76,-20.99 0.9,-42.192 4.83,-62.825 1.43,-7.506 4.97,-14.454 7.25,-21.747 1.82,-5.833 5.76,-22.752 9.67,-28.996 2.73,-4.374 10.51,-6.995 9.66,-12.082 -0.59,-3.553 -2.83,-6.668 -4.83,-9.666 -1.26,-1.895 -3.22,-3.221 -4.83,-4.832"
           stroke-width="30.95"
           stroke="#000000" />
        <path
           id="path1404"
           stroke-linejoin="round"
           opacity="1"
           fill-opacity="0"
           stroke-linecap="round"
           fill="#335289"
           d="m 1854.76,1167.75 c -14.35,-28.71 -17.51,-61.85 -28.99,-91.82 -7.44,-19.41 -23.49,-34.34 -36.25,-50.74 -27.29,-35.088 -45.03,-78.095 -86.99,-99.074"
           stroke-width="30.95"
           stroke="#000000" />
        <path
           id="path1406"
           stroke-linejoin="round"
           opacity="1"
           fill-opacity="0"
           stroke-linecap="round"
           fill="#335289"
           d="m 1837.85,1148.42 c -8.22,4.11 -19.29,-1.67 -26.58,-7.25 -7.71,-5.89 -11.88,-15.54 -19.33,-21.75 -7.22,-6.01 -16.11,-9.66 -24.17,-14.49 -23.55,-14.14 -45.87,-29.16 -67.65,-45.91 -10.59,-8.14 -18.37,-13.34 -24.17,-26.58 -8.13,-18.58 -8.47,-52.145 -9.66,-72.495 -0.93,-15.762 -0.23,-28.268 -16.92,-33.829"
           stroke-width="30.95"
           stroke="#000000" />
      </g>
      <path
         style="clip-rule:evenodd;fill:#e2e221;fill-opacity:1;fill-rule:evenodd"
         id="path1410"
         stroke-linejoin="round"
         opacity="1"
         stroke-linecap="round"
         fill="#e0cc47"
         d="m 214.35549,32.25654 c 0,0 -8.13525,1.248247 -8.4719,-6.110103 -0.33659,-7.358479 0.68596,-17.0958025 9.24344,-22.1911637 5.20916,-3.10162515 17.39013,-9.4930488 25.09839,8.9990097 7.70869,18.491993 3.60022,22.790518 -3.69444,21.444116 -4.53259,-0.836665 -22.17549,-2.141859 -22.17549,-2.141859 z"
         stroke-width="0.649586"
         stroke="#000000" />
      <path
         style="clip-rule:evenodd;fill:#e8e947;fill-opacity:1;fill-rule:evenodd"
         id="path1412"
         stroke-linejoin="round"
         opacity="1"
         stroke-linecap="round"
         fill="#e0cc47"
         d="m 215.18799,32.693244 c 0,0 -5.83478,-13.161218 -2.22188,-19.531572 3.61287,-6.3703993 11.75014,-11.3305481 16.67359,-5.9501018 4.99687,5.4611368 4.88189,5.8315458 6.14438,13.9659958 0.71954,4.636526 -2.04499,13.159509 -2.04499,13.159509 z"
         stroke-width="0.649586"
         stroke="#000000" />
      <path
         id="path1414"
         style="fill:#4177ad;fill-opacity:1;stroke:#000000;stroke-width:0.638285;stroke-linecap:round;stroke-miterlimit:4;stroke-dasharray:none;stroke-opacity:0.886275"
         d="m 207.55715,29.888224 c -0.32506,0.0015 -0.60452,0.01982 -0.83135,0.05734 -4.42056,0.731529 -4.67436,17.397957 -3.39535,24.727953 h 66.06838 c 0.8423,-3.375013 -0.38099,-19.540033 -1.63436,-20.997111 -1.35095,-1.570039 -8.02191,-0.10045 -12.30977,0.150262 -4.28827,0.250257 -21.47048,0.301342 -24.75935,0.0514 -3.0833,-0.234723 -18.26234,-4.013077 -23.1382,-3.989846 z" />
      <g
         style="clip-rule:evenodd;fill-rule:evenodd;stroke-linecap:round;stroke-linejoin:round"
         id="g1420"
         opacity="1"
         transform="matrix(0.04289232,0.00215797,-0.00214615,0.04361512,180.89877,-18.313938)">
        <path
           id="path1416"
           stroke-linejoin="round"
           opacity="1"
           stroke-linecap="round"
           fill="#ffffff"
           d="m 1762.96,1154.35 c 8.42,-21.05 40.84,-27.88 72.42,-15.26 31.58,12.63 50.37,39.92 41.96,60.97 -8.42,21.04 -40.84,27.87 -72.42,15.25 -31.58,-12.62 -50.37,-39.92 -41.96,-60.96 z"
           stroke-width="1"
           stroke="#000000" />
        <path
           id="path1418"
           stroke-linejoin="round"
           opacity="1"
           stroke-linecap="round"
           fill="#000000"
           d="m 1852.25,1191.8 c -3.32,12.02 -19.98,16.97 -37.21,11.05 -17.22,-5.93 -28.49,-20.47 -25.17,-32.49 3.32,-12.02 19.98,-16.96 37.21,-11.04 17.22,5.92 28.49,20.46 25.17,32.48 z"
           stroke-width="1"
           stroke-opacity="0"
           stroke="#847566" />
      </g>
      <path
         style="clip-rule:evenodd;fill-rule:evenodd"
         id="path1422"
         stroke-linejoin="round"
         opacity="1"
         stroke-linecap="round"
         fill="none"
         d="m 255.10469,41.684521 c 1.52987,7.638004 14.04723,12.940892 9.43357,-1.120841"
         stroke-width="1.6283"
         stroke="#000000" />
      <g
         style="clip-rule:evenodd;fill-rule:evenodd;stroke-linecap:round;stroke-linejoin:round"
         transform="matrix(-0.02027094,0.0385093,-0.03786088,-0.02059052,344.63024,-8.7033701)"
         opacity="1"
         id="g1428">
        <path
           stroke="#000000"
           stroke-width="1"
           d="m 1762.96,1154.35 c 8.42,-21.05 40.84,-27.88 72.42,-15.26 31.58,12.63 50.37,39.92 41.96,60.97 -8.42,21.04 -40.84,27.87 -72.42,15.25 -31.58,-12.62 -50.37,-39.92 -41.96,-60.96 z"
           fill="#ffffff"
           stroke-linecap="round"
           opacity="1"
           stroke-linejoin="round"
           id="path1424" />
        <path
           stroke="#847566"
           stroke-opacity="0"
           stroke-width="1"
           d="m 1852.25,1191.8 c -3.32,12.02 -19.98,16.97 -37.21,11.05 -17.22,-5.93 -28.49,-20.47 -25.17,-32.49 3.32,-12.02 19.98,-16.96 37.21,-11.04 17.22,5.92 28.49,20.46 25.17,32.48 z"
           fill="#000000"
           stroke-linecap="round"
           opacity="1"
           stroke-linejoin="round"
           id="path1426" />
      </g>
    </g>
    <g
       inkscape:label="snegle-lang"
       style="display:inline;opacity:1"
       id="g1311"
       transform="matrix(1.0011148,0,0,1.0122901,98.415552,0.51599403)">
      <g
         transform="matrix(0.04284456,0.00213177,-0.00214376,0.04308559,82.39137,-18.60132)"
         opacity="1"
         id="g1289"
         style="clip-rule:evenodd;fill-rule:evenodd;stroke-linecap:round;stroke-linejoin:round">
        <path
           stroke="#000000"
           stroke-width="30.95"
           d="m 1779.86,1204 c 0,-3.23 0,-6.45 0,-9.67"
           fill="#335289"
           stroke-linecap="round"
           fill-opacity="0"
           opacity="1"
           stroke-linejoin="round"
           id="path1265" />
        <path
           stroke="#000000"
           stroke-width="30.95"
           d="m 1799.19,1155.67 c -10.03,5.01 -7.38,-0.06 -9.67,-7.25 -10.58,-33.25 -21.3,-66.5 -33.83,-99.07 -6.85,-17.82 -19.49,-33.01 -26.58,-50.744 -6.53,-16.333 -8.32,-34.272 -14.5,-50.743 -4.07,-10.877 -12.71,-19.445 -19.33,-28.996 -11.56,-16.706 -23.07,-33.538 -33.83,-50.744 -4.93,-7.892 -6.58,-10.133 -14.49,-16.914 -2.21,-1.89 -5.2,-2.779 -7.25,-4.833 -1.28,-1.273 3.22,1.611 4.83,2.417"
           fill="#335289"
           stroke-linecap="round"
           fill-opacity="0"
           opacity="1"
           stroke-linejoin="round"
           id="path1267" />
        <path
           stroke="#000000"
           stroke-width="30.95"
           d="m 1820.93,1126.67 c -1.61,-1.61 -4.25,-2.63 -4.83,-4.83 -9.17,-35.17 -16.14,-70.87 -24.16,-106.32 -10.11,-44.625 -20.96,-94.075 -50.75,-130.482 -10.01,-12.24 -25.79,-24.821 -38.66,-33.829 -2.95,-2.066 -6.78,-2.671 -9.66,-4.833 -8.05,-6.037 -10.71,-15.018 -19.33,-19.331"
           fill="#335289"
           stroke-linecap="round"
           fill-opacity="0"
           opacity="1"
           stroke-linejoin="round"
           id="path1269" />
        <path
           stroke="#000000"
           stroke-width="30.95"
           d="m 1859.6,1136.34 c 0.8,-12.08 5.96,-24.67 2.41,-36.25 -12.05,-39.33 -32.94,-75.41 -48.33,-113.565 -10.09,-25.045 -16.88,-51.32 -24.16,-77.324 -3.32,-11.864 -5.04,-24.123 -7.25,-36.245 -0.59,-3.267 -0.71,-6.818 -2.41,-9.665 -2.08,-3.454 -6.82,-4.402 -9.67,-7.249"
           fill="#335289"
           stroke-linecap="round"
           fill-opacity="0"
           opacity="1"
           stroke-linejoin="round"
           id="path1271" />
        <path
           stroke="#000000"
           stroke-width="30.95"
           d="m 1891.01,1131.51 c 0,-3.23 0.88,-6.57 0,-9.67 -8.82,-30.86 -19.63,-61.12 -29,-91.82 -7.89,-25.87 -18.84,-64.329 -24.16,-91.822 -4.86,-25.082 -4.49,-53.309 -14.5,-77.324 -8.74,-20.986 -29,-33.362 -29,-57.992"
           fill="#335289"
           stroke-linecap="round"
           fill-opacity="0"
           opacity="1"
           stroke-linejoin="round"
           id="path1273" />
        <path
           stroke="#000000"
           stroke-width="30.95"
           d="m 1917.59,1117.01 c -2.42,-1.61 -6.19,-2.13 -7.25,-4.84 -13.65,-34.86 -24.06,-70.91 -36.25,-106.31 -11.32,-32.893 -27.45,-65.37 -36.24,-99.075 -6.41,-24.57 -7.86,-49.554 -19.33,-72.49"
           fill="#335289"
           stroke-linecap="round"
           fill-opacity="0"
           opacity="1"
           stroke-linejoin="round"
           id="path1275" />
        <path
           stroke="#000000"
           stroke-width="30.95"
           d="m 1936.92,1121.84 c -0.81,-1.61 -2.19,-3.05 -2.42,-4.83 -3.82,-30.54 -4.25,-61.53 -9.66,-91.82 -3.27,-18.31 -12.88,-35.011 -16.92,-53.163 -4.11,-18.507 -9.46,-36.8 -12.08,-55.577 -6.83,-48.979 2.42,-98.326 2.42,-147.397"
           fill="#335289"
           stroke-linecap="round"
           fill-opacity="0"
           opacity="1"
           stroke-linejoin="round"
           id="path1277" />
        <path
           stroke="#000000"
           stroke-width="30.95"
           d="m 1953.83,1119.42 c -0.8,-1.61 -2.12,-3.05 -2.41,-4.83 -5.36,-32.13 -10.24,-64.35 -14.5,-96.65 -5.62,-42.513 5.12,-81.477 12.08,-123.237 3.33,-20.004 8.32,-40.156 7.25,-60.408 -0.27,-5.151 -5.05,-9.776 -9.67,-12.082"
           fill="#335289"
           stroke-linecap="round"
           fill-opacity="0"
           opacity="1"
           stroke-linejoin="round"
           id="path1279" />
        <path
           stroke="#000000"
           stroke-width="30.95"
           d="m 1992.49,1095.26 c -2.54,-5.09 -1.18,-11.35 -2.41,-16.91 -7.21,-32.42 -15.04,-64.73 -24.17,-96.658 -6.59,-23.087 -22.97,-39.03 -36.24,-57.992 -7.22,-10.308 -14.89,-20.495 -24.16,-28.997 -7.61,-6.97 -16.87,-12.037 -24.17,-19.33 -9.83,-9.834 -16.14,-22.569 -28.99,-28.997"
           fill="#335289"
           stroke-linecap="round"
           fill-opacity="0"
           opacity="1"
           stroke-linejoin="round"
           id="path1281" />
        <path
           stroke="#000000"
           stroke-width="30.95"
           d="m 1982.83,1124.26 c -6.66,-6.66 -9.67,-19.46 -9.67,-29 0,-33.03 1.22,-66.06 2.42,-99.07 0.76,-20.99 0.9,-42.192 4.83,-62.825 1.43,-7.506 4.97,-14.454 7.25,-21.747 1.82,-5.833 5.76,-22.752 9.67,-28.996 2.73,-4.374 10.51,-6.995 9.66,-12.082 -0.59,-3.553 -2.83,-6.668 -4.83,-9.666 -1.26,-1.895 -3.22,-3.221 -4.83,-4.832"
           fill="#335289"
           stroke-linecap="round"
           fill-opacity="0"
           opacity="1"
           stroke-linejoin="round"
           id="path1283" />
        <path
           stroke="#000000"
           stroke-width="30.95"
           d="m 1854.76,1167.75 c -14.35,-28.71 -17.51,-61.85 -28.99,-91.82 -7.44,-19.41 -23.49,-34.34 -36.25,-50.74 -27.29,-35.088 -45.03,-78.095 -86.99,-99.074"
           fill="#335289"
           stroke-linecap="round"
           fill-opacity="0"
           opacity="1"
           stroke-linejoin="round"
           id="path1285" />
        <path
           stroke="#000000"
           stroke-width="30.95"
           d="m 1837.85,1148.42 c -8.22,4.11 -19.29,-1.67 -26.58,-7.25 -7.71,-5.89 -11.88,-15.54 -19.33,-21.75 -7.22,-6.01 -16.11,-9.66 -24.17,-14.49 -23.55,-14.14 -45.87,-29.16 -67.65,-45.91 -10.59,-8.14 -18.37,-13.34 -24.17,-26.58 -8.13,-18.58 -8.47,-52.145 -9.66,-72.495 -0.93,-15.762 -0.23,-28.268 -16.92,-33.829"
           fill="#335289"
           stroke-linecap="round"
           fill-opacity="0"
           opacity="1"
           stroke-linejoin="round"
           id="path1287" />
      </g>
      <path
         stroke="#000000"
         stroke-width="0.645271"
         d="m 115.81083,31.355188 c 0,0 -8.12619,1.233092 -8.46246,-6.035921 -0.33622,-7.269141 0.68519,-16.8882446 9.23314,-21.9217436 5.20336,-3.0639687 17.37077,-9.3777948 25.07044,8.8897536 7.70011,18.267484 3.59622,22.513821 -3.69032,21.183766 -4.52754,-0.826508 -22.1508,-2.115855 -22.1508,-2.115855 z"
         fill="#e0cc47"
         stroke-linecap="round"
         opacity="1"
         stroke-linejoin="round"
         id="path1291"
         style="clip-rule:evenodd;fill:#e2e221;fill-opacity:1;fill-rule:evenodd" />
      <path
         stroke="#000000"
         stroke-width="0.645271"
         d="m 116.64241,31.78659 c 0,0 -5.82829,-13.00143 -2.21941,-19.294442 3.60885,-6.2930568 11.73705,-11.192985 16.65502,-5.8778621 4.99131,5.3948341 4.87646,5.7607461 6.13754,13.7964361 0.71874,4.580235 -2.04271,12.999741 -2.04271,12.999741 z"
         fill="#e0cc47"
         stroke-linecap="round"
         opacity="1"
         stroke-linejoin="round"
         id="path1293"
         style="clip-rule:evenodd;fill:#e8e947;fill-opacity:1;fill-rule:evenodd" />
      <path
         d="m 106.85742,29.015625 c -0.33601,0.0015 -0.62489,0.01958 -0.85937,0.05664 -4.56952,0.722648 -4.83188,17.18673 -3.50977,24.427734 h 68.29492 c 0.87068,-3.334038 -0.39383,-19.3028 -1.68945,-20.742188 -1.39647,-1.550977 -8.29224,-0.09923 -12.72461,0.148438 -4.43278,0.247219 -22.19404,0.297683 -25.59375,0.05078 -3.18721,-0.231873 -18.87779,-3.964355 -23.91797,-3.941406 z"
         style="opacity:1;fill:#4177ad;fill-opacity:1;stroke:#000000;stroke-width:0.645;stroke-linecap:round;stroke-miterlimit:4;stroke-dasharray:none;stroke-opacity:0.886275"
         id="path1295" />
      <g
         transform="matrix(0.04284456,0.00213177,-0.00214376,0.04308559,82.39137,-18.60132)"
         opacity="1"
         id="g1301"
         style="clip-rule:evenodd;fill-rule:evenodd;stroke-linecap:round;stroke-linejoin:round">
        <path
           stroke="#000000"
           stroke-width="1"
           d="m 1762.96,1154.35 c 8.42,-21.05 40.84,-27.88 72.42,-15.26 31.58,12.63 50.37,39.92 41.96,60.97 -8.42,21.04 -40.84,27.87 -72.42,15.25 -31.58,-12.62 -50.37,-39.92 -41.96,-60.96 z"
           fill="#ffffff"
           stroke-linecap="round"
           opacity="1"
           stroke-linejoin="round"
           id="path1297" />
        <path
           stroke="#847566"
           stroke-opacity="0"
           stroke-width="1"
           d="m 1852.25,1191.8 c -3.32,12.02 -19.98,16.97 -37.21,11.05 -17.22,-5.93 -28.49,-20.47 -25.17,-32.49 3.32,-12.02 19.98,-16.96 37.21,-11.04 17.22,5.92 28.49,20.46 25.17,32.48 z"
           fill="#000000"
           stroke-linecap="round"
           opacity="1"
           stroke-linejoin="round"
           id="path1299" />
      </g>
      <path
         stroke="#000000"
         stroke-width="1.61748"
         d="m 156.51466,40.668705 c 1.52816,7.545271 14.03158,12.783778 9.42306,-1.107233"
         fill="none"
         stroke-linecap="round"
         opacity="1"
         stroke-linejoin="round"
         id="path1303"
         style="clip-rule:evenodd;fill-rule:evenodd" />
      <g
         id="g1309"
         opacity="1"
         transform="matrix(-0.02024837,0.03804176,-0.03781872,-0.02034053,245.94051,-9.1074329)"
         style="clip-rule:evenodd;fill-rule:evenodd;stroke-linecap:round;stroke-linejoin:round">
        <path
           id="path1305"
           stroke-linejoin="round"
           opacity="1"
           stroke-linecap="round"
           fill="#ffffff"
           d="m 1762.96,1154.35 c 8.42,-21.05 40.84,-27.88 72.42,-15.26 31.58,12.63 50.37,39.92 41.96,60.97 -8.42,21.04 -40.84,27.87 -72.42,15.25 -31.58,-12.62 -50.37,-39.92 -41.96,-60.96 z"
           stroke-width="1"
           stroke="#000000" />
        <path
           id="path1307"
           stroke-linejoin="round"
           opacity="1"
           stroke-linecap="round"
           fill="#000000"
           d="m 1852.25,1191.8 c -3.32,12.02 -19.98,16.97 -37.21,11.05 -17.22,-5.93 -28.49,-20.47 -25.17,-32.49 3.32,-12.02 19.98,-16.96 37.21,-11.04 17.22,5.92 28.49,20.46 25.17,32.48 z"
           stroke-width="1"
           stroke-opacity="0"
           stroke="#847566" />
      </g>
    </g>
    <g
       transform="matrix(0.99994791,0,0,1.0000665,0.01219939,-0.00180544)"
       id="snegle-rund-munn"
       style="display:inline;stroke-width:0.999997"
       inkscape:label="snegle-rund-munn">
      <g
         style="clip-rule:evenodd;display:inline;fill-rule:evenodd;stroke-width:1.00002;stroke-linecap:round;stroke-linejoin:round"
         id="g1646"
         opacity="1"
         transform="matrix(0.04289232,0.00215797,-0.00214615,0.04361512,180.89877,-18.313938)">
        <path
           id="path1622"
           stroke-linejoin="round"
           opacity="1"
           fill-opacity="0"
           stroke-linecap="round"
           fill="#335289"
           d="m 1779.86,1204 c 0,-3.23 0,-6.45 0,-9.67"
           stroke-width="30.9498"
           stroke="#000000" />
        <path
           id="path1624"
           stroke-linejoin="round"
           opacity="1"
           fill-opacity="0"
           stroke-linecap="round"
           fill="#335289"
           d="m 1799.19,1155.67 c -10.03,5.01 -7.38,-0.06 -9.67,-7.25 -10.58,-33.25 -21.3,-66.5 -33.83,-99.07 -6.85,-17.82 -19.49,-33.01 -26.58,-50.744 -6.53,-16.333 -8.32,-34.272 -14.5,-50.743 -4.07,-10.877 -12.71,-19.445 -19.33,-28.996 -11.56,-16.706 -23.07,-33.538 -33.83,-50.744 -4.93,-7.892 -6.58,-10.133 -14.49,-16.914 -2.21,-1.89 -5.2,-2.779 -7.25,-4.833 -1.28,-1.273 3.22,1.611 4.83,2.417"
           stroke-width="30.9498"
           stroke="#000000" />
        <path
           id="path1626"
           stroke-linejoin="round"
           opacity="1"
           fill-opacity="0"
           stroke-linecap="round"
           fill="#335289"
           d="m 1820.93,1126.67 c -1.61,-1.61 -4.25,-2.63 -4.83,-4.83 -9.17,-35.17 -16.14,-70.87 -24.16,-106.32 -10.11,-44.625 -20.96,-94.075 -50.75,-130.482 -10.01,-12.24 -25.79,-24.821 -38.66,-33.829 -2.95,-2.066 -6.78,-2.671 -9.66,-4.833 -8.05,-6.037 -10.71,-15.018 -19.33,-19.331"
           stroke-width="30.9498"
           stroke="#000000" />
        <path
           id="path1628"
           stroke-linejoin="round"
           opacity="1"
           fill-opacity="0"
           stroke-linecap="round"
           fill="#335289"
           d="m 1859.6,1136.34 c 0.8,-12.08 5.96,-24.67 2.41,-36.25 -12.05,-39.33 -32.94,-75.41 -48.33,-113.565 -10.09,-25.045 -16.88,-51.32 -24.16,-77.324 -3.32,-11.864 -5.04,-24.123 -7.25,-36.245 -0.59,-3.267 -0.71,-6.818 -2.41,-9.665 -2.08,-3.454 -6.82,-4.402 -9.67,-7.249"
           stroke-width="30.9498"
           stroke="#000000" />
        <path
           id="path1630"
           stroke-linejoin="round"
           opacity="1"
           fill-opacity="0"
           stroke-linecap="round"
           fill="#335289"
           d="m 1891.01,1131.51 c 0,-3.23 0.88,-6.57 0,-9.67 -8.82,-30.86 -19.63,-61.12 -29,-91.82 -7.89,-25.87 -18.84,-64.329 -24.16,-91.822 -4.86,-25.082 -4.49,-53.309 -14.5,-77.324 -8.74,-20.986 -29,-33.362 -29,-57.992"
           stroke-width="30.9498"
           stroke="#000000" />
        <path
           id="path1632"
           stroke-linejoin="round"
           opacity="1"
           fill-opacity="0"
           stroke-linecap="round"
           fill="#335289"
           d="m 1917.59,1117.01 c -2.42,-1.61 -6.19,-2.13 -7.25,-4.84 -13.65,-34.86 -24.06,-70.91 -36.25,-106.31 -11.32,-32.893 -27.45,-65.37 -36.24,-99.075 -6.41,-24.57 -7.86,-49.554 -19.33,-72.49"
           stroke-width="30.9498"
           stroke="#000000" />
        <path
           id="path1634"
           stroke-linejoin="round"
           opacity="1"
           fill-opacity="0"
           stroke-linecap="round"
           fill="#335289"
           d="m 1936.92,1121.84 c -0.81,-1.61 -2.19,-3.05 -2.42,-4.83 -3.82,-30.54 -4.25,-61.53 -9.66,-91.82 -3.27,-18.31 -12.88,-35.011 -16.92,-53.163 -4.11,-18.507 -9.46,-36.8 -12.08,-55.577 -6.83,-48.979 2.42,-98.326 2.42,-147.397"
           stroke-width="30.9498"
           stroke="#000000" />
        <path
           id="path1636"
           stroke-linejoin="round"
           opacity="1"
           fill-opacity="0"
           stroke-linecap="round"
           fill="#335289"
           d="m 1953.83,1119.42 c -0.8,-1.61 -2.12,-3.05 -2.41,-4.83 -5.36,-32.13 -10.24,-64.35 -14.5,-96.65 -5.62,-42.513 5.12,-81.477 12.08,-123.237 3.33,-20.004 8.32,-40.156 7.25,-60.408 -0.27,-5.151 -5.05,-9.776 -9.67,-12.082"
           stroke-width="30.9498"
           stroke="#000000" />
        <path
           id="path1638"
           stroke-linejoin="round"
           opacity="1"
           fill-opacity="0"
           stroke-linecap="round"
           fill="#335289"
           d="m 1992.49,1095.26 c -2.54,-5.09 -1.18,-11.35 -2.41,-16.91 -7.21,-32.42 -15.04,-64.73 -24.17,-96.658 -6.59,-23.087 -22.97,-39.03 -36.24,-57.992 -7.22,-10.308 -14.89,-20.495 -24.16,-28.997 -7.61,-6.97 -16.87,-12.037 -24.17,-19.33 -9.83,-9.834 -16.14,-22.569 -28.99,-28.997"
           stroke-width="30.9498"
           stroke="#000000" />
        <path
           id="path1640"
           stroke-linejoin="round"
           opacity="1"
           fill-opacity="0"
           stroke-linecap="round"
           fill="#335289"
           d="m 1982.83,1124.26 c -6.66,-6.66 -9.67,-19.46 -9.67,-29 0,-33.03 1.22,-66.06 2.42,-99.07 0.76,-20.99 0.9,-42.192 4.83,-62.825 1.43,-7.506 4.97,-14.454 7.25,-21.747 1.82,-5.833 5.76,-22.752 9.67,-28.996 2.73,-4.374 10.51,-6.995 9.66,-12.082 -0.59,-3.553 -2.83,-6.668 -4.83,-9.666 -1.26,-1.895 -3.22,-3.221 -4.83,-4.832"
           stroke-width="30.9498"
           stroke="#000000" />
        <path
           id="path1642"
           stroke-linejoin="round"
           opacity="1"
           fill-opacity="0"
           stroke-linecap="round"
           fill="#335289"
           d="m 1854.76,1167.75 c -14.35,-28.71 -17.51,-61.85 -28.99,-91.82 -7.44,-19.41 -23.49,-34.34 -36.25,-50.74 -27.29,-35.088 -45.03,-78.095 -86.99,-99.074"
           stroke-width="30.9498"
           stroke="#000000" />
        <path
           id="path1644"
           stroke-linejoin="round"
           opacity="1"
           fill-opacity="0"
           stroke-linecap="round"
           fill="#335289"
           d="m 1837.85,1148.42 c -8.22,4.11 -19.29,-1.67 -26.58,-7.25 -7.71,-5.89 -11.88,-15.54 -19.33,-21.75 -7.22,-6.01 -16.11,-9.66 -24.17,-14.49 -23.55,-14.14 -45.87,-29.16 -67.65,-45.91 -10.59,-8.14 -18.37,-13.34 -24.17,-26.58 -8.13,-18.58 -8.47,-52.145 -9.66,-72.495 -0.93,-15.762 -0.23,-28.268 -16.92,-33.829"
           stroke-width="30.9498"
           stroke="#000000" />
      </g>
      <path
         style="clip-rule:evenodd;fill:#e2e221;fill-opacity:1;fill-rule:evenodd"
         id="path1648"
         stroke-linejoin="round"
         opacity="1"
         stroke-linecap="round"
         fill="#e0cc47"
         d="m 214.35549,32.25654 c 0,0 -8.13525,1.248247 -8.4719,-6.110103 -0.33659,-7.358479 0.68596,-17.0958025 9.24344,-22.1911637 5.20916,-3.10162515 17.39013,-9.4930488 25.09839,8.9990097 7.70869,18.491993 3.60022,22.790518 -3.69444,21.444116 -4.53259,-0.836665 -22.17549,-2.141859 -22.17549,-2.141859 z"
         stroke-width="0.649581"
         stroke="#000000" />
      <path
         style="clip-rule:evenodd;fill:#e8e947;fill-opacity:1;fill-rule:evenodd"
         id="path1650"
         stroke-linejoin="round"
         opacity="1"
         stroke-linecap="round"
         fill="#e0cc47"
         d="m 215.18799,32.693244 c 0,0 -5.83478,-13.161218 -2.22188,-19.531572 3.61287,-6.3703993 11.75014,-11.3305481 16.67359,-5.9501018 4.99687,5.4611368 4.88189,5.8315458 6.14438,13.9659958 0.71954,4.636526 -2.04499,13.159509 -2.04499,13.159509 z"
         stroke-width="0.649581"
         stroke="#000000" />
      <path
         id="path1652"
         style="fill:#4177ad;fill-opacity:1;stroke:#000000;stroke-width:0.649308;stroke-linecap:round;stroke-miterlimit:4;stroke-dasharray:none;stroke-opacity:0.886275"
         d="m 205.3921,29.888224 c -0.33639,0.0015 -0.62559,0.01982 -0.86033,0.05734 -4.57462,0.731529 -4.83727,17.397957 -3.51368,24.727953 h 68.37105 c 0.87165,-3.375013 -0.39427,-19.540033 -1.69133,-20.997111 -1.39803,-1.570039 -8.30149,-0.10045 -12.7388,0.150262 -4.43772,0.250257 -22.21878,0.301342 -25.62228,0.0514 -3.19076,-0.234723 -18.89883,-4.013077 -23.94463,-3.989846 z" />
      <g
         style="clip-rule:evenodd;fill-rule:evenodd;stroke-width:1.00002;stroke-linecap:round;stroke-linejoin:round"
         id="g1658"
         opacity="1"
         transform="matrix(0.04289232,0.00215797,-0.00214615,0.04361512,180.89877,-18.313938)">
        <path
           id="path1654"
           stroke-linejoin="round"
           opacity="1"
           stroke-linecap="round"
           fill="#ffffff"
           d="m 1762.96,1154.35 c 8.42,-21.05 40.84,-27.88 72.42,-15.26 31.58,12.63 50.37,39.92 41.96,60.97 -8.42,21.04 -40.84,27.87 -72.42,15.25 -31.58,-12.62 -50.37,-39.92 -41.96,-60.96 z"
           stroke-width="0.999997"
           stroke="#000000" />
        <path
           id="path1656"
           stroke-linejoin="round"
           opacity="1"
           stroke-linecap="round"
           fill="#000000"
           d="m 1852.25,1191.8 c -3.32,12.02 -19.98,16.97 -37.21,11.05 -17.22,-5.93 -28.49,-20.47 -25.17,-32.49 3.32,-12.02 19.98,-16.96 37.21,-11.04 17.22,5.92 28.49,20.46 25.17,32.48 z"
           stroke-width="0.999997"
           stroke-opacity="0"
           stroke="#847566" />
      </g>
      <g
         style="clip-rule:evenodd;fill-rule:evenodd;stroke-width:1.00002;stroke-linecap:round;stroke-linejoin:round"
         transform="matrix(-0.02027094,0.0385093,-0.03786088,-0.02059052,344.63024,-8.7033701)"
         opacity="1"
         id="g1666">
        <path
           stroke="#000000"
           stroke-width="0.999997"
           d="m 1762.96,1154.35 c 8.42,-21.05 40.84,-27.88 72.42,-15.26 31.58,12.63 50.37,39.92 41.96,60.97 -8.42,21.04 -40.84,27.87 -72.42,15.25 -31.58,-12.62 -50.37,-39.92 -41.96,-60.96 z"
           fill="#ffffff"
           stroke-linecap="round"
           opacity="1"
           stroke-linejoin="round"
           id="path1662" />
        <path
           stroke="#847566"
           stroke-opacity="0"
           stroke-width="0.999997"
           d="m 1852.25,1191.8 c -3.32,12.02 -19.98,16.97 -37.21,11.05 -17.22,-5.93 -28.49,-20.47 -25.17,-32.49 3.32,-12.02 19.98,-16.96 37.21,-11.04 17.22,5.92 28.49,20.46 25.17,32.48 z"
           fill="#000000"
           stroke-linecap="round"
           opacity="1"
           stroke-linejoin="round"
           id="path1664" />
      </g>
      <path
         d="m 265.23261,46.377529 a 3.8800859,3.4815108 0 0 1 -3.88009,3.481511 3.8800859,3.4815108 0 0 1 -3.88008,-3.481511 3.8800859,3.4815108 0 0 1 3.88008,-3.48151 3.8800859,3.4815108 0 0 1 3.88009,3.48151 z"
         style="fill:none;stroke:#000000;stroke-width:1.25882;stroke-linecap:round;stroke-miterlimit:4;stroke-dasharray:none;stroke-opacity:1"
         id="path1693" />
    </g>
    <g
       inkscape:label="snegle"
       style="display:inline;stroke-width:1.00031;stroke-miterlimit:4;stroke-dasharray:none"
       transform="matrix(1.0011148,0,0,1.0122901,-1.5844477,0.51599403)"
       id="g1263">
      <g
         style="clip-rule:evenodd;fill-rule:evenodd;stroke-width:23.2533;stroke-linecap:round;stroke-linejoin:round;stroke-miterlimit:4;stroke-dasharray:none"
         id="g34"
         opacity="1"
         transform="matrix(0.04284456,0.00213177,-0.00214376,0.04308559,82.39137,-18.60132)">
        <path
           style="stroke-width:23.2533;stroke-miterlimit:4;stroke-dasharray:none"
           id="path10"
           stroke-linejoin="round"
           opacity="1"
           fill-opacity="0"
           stroke-linecap="round"
           fill="#335289"
           d="m 1779.86,1204 c 0,-3.23 0,-6.45 0,-9.67"
           stroke-width="30.95"
           stroke="#000000" />
        <path
           style="stroke-width:23.2533;stroke-miterlimit:4;stroke-dasharray:none"
           id="path12"
           stroke-linejoin="round"
           opacity="1"
           fill-opacity="0"
           stroke-linecap="round"
           fill="#335289"
           d="m 1799.19,1155.67 c -10.03,5.01 -7.38,-0.06 -9.67,-7.25 -10.58,-33.25 -21.3,-66.5 -33.83,-99.07 -6.85,-17.82 -19.49,-33.01 -26.58,-50.744 -6.53,-16.333 -8.32,-34.272 -14.5,-50.743 -4.07,-10.877 -12.71,-19.445 -19.33,-28.996 -11.56,-16.706 -23.07,-33.538 -33.83,-50.744 -4.93,-7.892 -6.58,-10.133 -14.49,-16.914 -2.21,-1.89 -5.2,-2.779 -7.25,-4.833 -1.28,-1.273 3.22,1.611 4.83,2.417"
           stroke-width="30.95"
           stroke="#000000" />
        <path
           style="stroke-width:23.2533;stroke-miterlimit:4;stroke-dasharray:none"
           id="path14"
           stroke-linejoin="round"
           opacity="1"
           fill-opacity="0"
           stroke-linecap="round"
           fill="#335289"
           d="m 1820.93,1126.67 c -1.61,-1.61 -4.25,-2.63 -4.83,-4.83 -9.17,-35.17 -16.14,-70.87 -24.16,-106.32 -10.11,-44.625 -20.96,-94.075 -50.75,-130.482 -10.01,-12.24 -25.79,-24.821 -38.66,-33.829 -2.95,-2.066 -6.78,-2.671 -9.66,-4.833 -8.05,-6.037 -10.71,-15.018 -19.33,-19.331"
           stroke-width="30.95"
           stroke="#000000" />
        <path
           style="stroke-width:23.2533;stroke-miterlimit:4;stroke-dasharray:none"
           id="path16"
           stroke-linejoin="round"
           opacity="1"
           fill-opacity="0"
           stroke-linecap="round"
           fill="#335289"
           d="m 1859.6,1136.34 c 0.8,-12.08 5.96,-24.67 2.41,-36.25 -12.05,-39.33 -32.94,-75.41 -48.33,-113.565 -10.09,-25.045 -16.88,-51.32 -24.16,-77.324 -3.32,-11.864 -5.04,-24.123 -7.25,-36.245 -0.59,-3.267 -0.71,-6.818 -2.41,-9.665 -2.08,-3.454 -6.82,-4.402 -9.67,-7.249"
           stroke-width="30.95"
           stroke="#000000" />
        <path
           style="stroke-width:23.2533;stroke-miterlimit:4;stroke-dasharray:none"
           id="path18"
           stroke-linejoin="round"
           opacity="1"
           fill-opacity="0"
           stroke-linecap="round"
           fill="#335289"
           d="m 1891.01,1131.51 c 0,-3.23 0.88,-6.57 0,-9.67 -8.82,-30.86 -19.63,-61.12 -29,-91.82 -7.89,-25.87 -18.84,-64.329 -24.16,-91.822 -4.86,-25.082 -4.49,-53.309 -14.5,-77.324 -8.74,-20.986 -29,-33.362 -29,-57.992"
           stroke-width="30.95"
           stroke="#000000" />
        <path
           style="stroke-width:23.2533;stroke-miterlimit:4;stroke-dasharray:none"
           id="path20"
           stroke-linejoin="round"
           opacity="1"
           fill-opacity="0"
           stroke-linecap="round"
           fill="#335289"
           d="m 1917.59,1117.01 c -2.42,-1.61 -6.19,-2.13 -7.25,-4.84 -13.65,-34.86 -24.06,-70.91 -36.25,-106.31 -11.32,-32.893 -27.45,-65.37 -36.24,-99.075 -6.41,-24.57 -7.86,-49.554 -19.33,-72.49"
           stroke-width="30.95"
           stroke="#000000" />
        <path
           style="stroke-width:23.2533;stroke-miterlimit:4;stroke-dasharray:none"
           id="path22"
           stroke-linejoin="round"
           opacity="1"
           fill-opacity="0"
           stroke-linecap="round"
           fill="#335289"
           d="m 1936.92,1121.84 c -0.81,-1.61 -2.19,-3.05 -2.42,-4.83 -3.82,-30.54 -4.25,-61.53 -9.66,-91.82 -3.27,-18.31 -12.88,-35.011 -16.92,-53.163 -4.11,-18.507 -9.46,-36.8 -12.08,-55.577 -6.83,-48.979 2.42,-98.326 2.42,-147.397"
           stroke-width="30.95"
           stroke="#000000" />
        <path
           style="stroke-width:23.2533;stroke-miterlimit:4;stroke-dasharray:none"
           id="path24"
           stroke-linejoin="round"
           opacity="1"
           fill-opacity="0"
           stroke-linecap="round"
           fill="#335289"
           d="m 1953.83,1119.42 c -0.8,-1.61 -2.12,-3.05 -2.41,-4.83 -5.36,-32.13 -10.24,-64.35 -14.5,-96.65 -5.62,-42.513 5.12,-81.477 12.08,-123.237 3.33,-20.004 8.32,-40.156 7.25,-60.408 -0.27,-5.151 -5.05,-9.776 -9.67,-12.082"
           stroke-width="30.95"
           stroke="#000000" />
        <path
           style="stroke-width:23.2533;stroke-miterlimit:4;stroke-dasharray:none"
           id="path26"
           stroke-linejoin="round"
           opacity="1"
           fill-opacity="0"
           stroke-linecap="round"
           fill="#335289"
           d="m 1992.49,1095.26 c -2.54,-5.09 -1.18,-11.35 -2.41,-16.91 -7.21,-32.42 -15.04,-64.73 -24.17,-96.658 -6.59,-23.087 -22.97,-39.03 -36.24,-57.992 -7.22,-10.308 -14.89,-20.495 -24.16,-28.997 -7.61,-6.97 -16.87,-12.037 -24.17,-19.33 -9.83,-9.834 -16.14,-22.569 -28.99,-28.997"
           stroke-width="30.95"
           stroke="#000000" />
        <path
           style="stroke-width:23.2533;stroke-miterlimit:4;stroke-dasharray:none"
           id="path28"
           stroke-linejoin="round"
           opacity="1"
           fill-opacity="0"
           stroke-linecap="round"
           fill="#335289"
           d="m 1982.83,1124.26 c -6.66,-6.66 -9.67,-19.46 -9.67,-29 0,-33.03 1.22,-66.06 2.42,-99.07 0.76,-20.99 0.9,-42.192 4.83,-62.825 1.43,-7.506 4.97,-14.454 7.25,-21.747 1.82,-5.833 5.76,-22.752 9.67,-28.996 2.73,-4.374 10.51,-6.995 9.66,-12.082 -0.59,-3.553 -2.83,-6.668 -4.83,-9.666 -1.26,-1.895 -3.22,-3.221 -4.83,-4.832"
           stroke-width="30.95"
           stroke="#000000" />
        <path
           style="stroke-width:23.2533;stroke-miterlimit:4;stroke-dasharray:none"
           id="path30"
           stroke-linejoin="round"
           opacity="1"
           fill-opacity="0"
           stroke-linecap="round"
           fill="#335289"
           d="m 1854.76,1167.75 c -14.35,-28.71 -17.51,-61.85 -28.99,-91.82 -7.44,-19.41 -23.49,-34.34 -36.25,-50.74 -27.29,-35.088 -45.03,-78.095 -86.99,-99.074"
           stroke-width="30.95"
           stroke="#000000" />
        <path
           style="stroke-width:23.2533;stroke-miterlimit:4;stroke-dasharray:none"
           id="path32"
           stroke-linejoin="round"
           opacity="1"
           fill-opacity="0"
           stroke-linecap="round"
           fill="#335289"
           d="m 1837.85,1148.42 c -8.22,4.11 -19.29,-1.67 -26.58,-7.25 -7.71,-5.89 -11.88,-15.54 -19.33,-21.75 -7.22,-6.01 -16.11,-9.66 -24.17,-14.49 -23.55,-14.14 -45.87,-29.16 -67.65,-45.91 -10.59,-8.14 -18.37,-13.34 -24.17,-26.58 -8.13,-18.58 -8.47,-52.145 -9.66,-72.495 -0.93,-15.762 -0.23,-28.268 -16.92,-33.829"
           stroke-width="30.95"
           stroke="#000000" />
      </g>
      <path
         style="clip-rule:evenodd;fill:#e2e221;fill-opacity:1;fill-rule:evenodd;stroke-width:1.00031;stroke-miterlimit:4;stroke-dasharray:none"
         id="path38"
         stroke-linejoin="round"
         opacity="1"
         stroke-linecap="round"
         fill="#e0cc47"
         d="m 115.81083,31.355188 c 0,0 -8.12619,1.233092 -8.46246,-6.035921 -0.33622,-7.269141 0.68519,-16.8882446 9.23314,-21.9217436 5.20336,-3.0639687 17.37077,-9.3777948 25.07044,8.8897536 7.70011,18.267484 3.59622,22.513821 -3.69032,21.183766 -4.52754,-0.826508 -22.1508,-2.115855 -22.1508,-2.115855 z"
         stroke-width="0.645271"
         stroke="#000000" />
      <path
         style="clip-rule:evenodd;fill:#e8e947;fill-opacity:1;fill-rule:evenodd;stroke-width:1.00031;stroke-miterlimit:4;stroke-dasharray:none"
         id="path40"
         stroke-linejoin="round"
         opacity="1"
         stroke-linecap="round"
         fill="#e0cc47"
         d="m 116.64241,31.78659 c 0,0 -5.82829,-13.00143 -2.21941,-19.294442 3.60885,-6.2930568 11.73705,-11.192985 16.65502,-5.8778621 4.99131,5.3948341 4.87646,5.7607461 6.13754,13.7964361 0.71874,4.580235 -2.04271,12.999741 -2.04271,12.999741 z"
         stroke-width="0.645271"
         stroke="#000000" />
      <path
         id="rect1227"
         style="opacity:1;fill:#4177ad;fill-opacity:1;stroke:#000000;stroke-width:1.00031;stroke-linecap:round;stroke-miterlimit:4;stroke-dasharray:none;stroke-opacity:0.886275"
         d="m 106.85742,29.015625 c -0.33601,0.0015 -0.62489,0.01958 -0.85937,0.05664 -4.56952,0.722648 -4.83188,17.18673 -3.50977,24.427734 h 68.29492 c 0.87068,-3.334038 -0.39383,-19.3028 -1.68945,-20.742188 -1.39647,-1.550977 -8.29224,-0.09923 -12.72461,0.148438 -4.43278,0.247219 -22.19404,0.297683 -25.59375,0.05078 -3.18721,-0.231873 -18.87779,-3.964355 -23.91797,-3.941406 z" />
      <g
         style="clip-rule:evenodd;fill-rule:evenodd;stroke-width:23.2533;stroke-linecap:round;stroke-linejoin:round;stroke-miterlimit:4;stroke-dasharray:none"
         id="g46"
         opacity="1"
         transform="matrix(0.04284456,0.00213177,-0.00214376,0.04308559,82.39137,-18.60132)">
        <path
           style="stroke-width:23.2533;stroke-miterlimit:4;stroke-dasharray:none"
           id="path42"
           stroke-linejoin="round"
           opacity="1"
           stroke-linecap="round"
           fill="#ffffff"
           d="m 1762.96,1154.35 c 8.42,-21.05 40.84,-27.88 72.42,-15.26 31.58,12.63 50.37,39.92 41.96,60.97 -8.42,21.04 -40.84,27.87 -72.42,15.25 -31.58,-12.62 -50.37,-39.92 -41.96,-60.96 z"
           stroke-width="1"
           stroke="#000000" />
        <path
           style="stroke-width:23.2533;stroke-miterlimit:4;stroke-dasharray:none"
           id="path44"
           stroke-linejoin="round"
           opacity="1"
           stroke-linecap="round"
           fill="#000000"
           d="m 1852.25,1191.8 c -3.32,12.02 -19.98,16.97 -37.21,11.05 -17.22,-5.93 -28.49,-20.47 -25.17,-32.49 3.32,-12.02 19.98,-16.96 37.21,-11.04 17.22,5.92 28.49,20.46 25.17,32.48 z"
           stroke-width="1"
           stroke-opacity="0"
           stroke="#847566" />
      </g>
      <path
         style="clip-rule:evenodd;fill-rule:evenodd;stroke-width:1.00031;stroke-miterlimit:4;stroke-dasharray:none"
         id="path48"
         stroke-linejoin="round"
         opacity="1"
         stroke-linecap="round"
         fill="none"
         d="m 156.51466,40.668705 c 1.52816,7.545271 14.03158,12.783778 9.42306,-1.107233"
         stroke-width="1.61748"
         stroke="#000000" />
      <g
         style="clip-rule:evenodd;fill-rule:evenodd;stroke-width:23.2533;stroke-linecap:round;stroke-linejoin:round;stroke-miterlimit:4;stroke-dasharray:none"
         transform="matrix(-0.02024837,0.03804176,-0.03781872,-0.02034053,245.94051,-9.1074329)"
         opacity="1"
         id="g891">
        <path
           style="stroke-width:23.2533;stroke-miterlimit:4;stroke-dasharray:none"
           stroke="#000000"
           stroke-width="1"
           d="m 1762.96,1154.35 c 8.42,-21.05 40.84,-27.88 72.42,-15.26 31.58,12.63 50.37,39.92 41.96,60.97 -8.42,21.04 -40.84,27.87 -72.42,15.25 -31.58,-12.62 -50.37,-39.92 -41.96,-60.96 z"
           fill="#ffffff"
           stroke-linecap="round"
           opacity="1"
           stroke-linejoin="round"
           id="path887" />
        <path
           style="stroke-width:23.2533;stroke-miterlimit:4;stroke-dasharray:none"
           stroke="#847566"
           stroke-opacity="0"
           stroke-width="1"
           d="m 1852.25,1191.8 c -3.32,12.02 -19.98,16.97 -37.21,11.05 -17.22,-5.93 -28.49,-20.47 -25.17,-32.49 3.32,-12.02 19.98,-16.96 37.21,-11.04 17.22,5.92 28.49,20.46 25.17,32.48 z"
           fill="#000000"
           stroke-linecap="round"
           opacity="1"
           stroke-linejoin="round"
           id="path889-7" />
      </g>
    </g>
    <path
       inkscape:label="trekanter"
       id="path1425"
       style="display:none;fill:#5599ff;stroke-width:5.46696;stroke-linecap:round;stroke-opacity:0.995984"
       inkscape:transform-center-x="1.507642"
       inkscape:transform-center-y="-3.8841962"
       d="M 689.7619,81.608906 635.47157,-58.220667 476.17711,84.080074 Z m -213.58479,2.471168 2.46858,213.585806 139.83137,-54.28955 z m 0,0 -213.5866,2.470383 54.28955,139.831363 z m 0,0 -2.47117,-213.584794 -139.83058,54.287751 z" />
    <g
       transform="translate(754,-509)"
       inkscape:label="trekanter-30-grader"
       id="g1630">
      <path
         id="path1555"
         style="display:inline;fill:#0066ff;fill-opacity:1;stroke-width:2.85529;stroke-linecap:round;stroke-opacity:0.995984"
         d="M 502,545.40039 552.5,732 603,545.40039 Z M 552.5,732 l 186.84961,-49.56641 -50.5,-87.46679 z m 0,0 136.34961,137.0332 50.5,-87.46679 z m 0,0 -50.5,186.59961 h 101 z m 0,0 -186.84961,49.56641 50.5,87.46679 z m 0,0 -136.34961,-137.0332 -50.5,87.46679 z" />
      <path
         id="path1562"
         style="display:inline;fill:#5599ff;fill-opacity:1;stroke-width:2.85529;stroke-linecap:round;stroke-opacity:0.995984"
         d="m 502.93359,545.15039 -87.46679,50.5 L 552.5,732 Z M 552.5,732 689.5332,595.65039 l -87.46679,-50.5 z m 0,0 186.59961,50.5 v -101 z m 0,0 49.56641,186.84961 87.46679,-50.5 z m 0,0 -137.0332,136.34961 87.46679,50.5 z m 0,0 -186.59961,-50.5 v 101 z" />
    </g>
    <g
       inkscape:label="ikon"
       id="g1674"
       transform="translate(400)">
      <rect
         y="-5.9094692e-08"
         x="400"
         height="200"
         width="200"
         id="rect1110"
         style="display:inline;fill:#0000ff;fill-opacity:1;stroke:none;stroke-width:1.589;stroke-miterlimit:4;stroke-dasharray:none" />
      <rect
         style="display:inline;opacity:1;fill:#0066ff;fill-opacity:1;stroke:none;stroke-width:1.589;stroke-miterlimit:4;stroke-dasharray:none"
         id="rect1317"
         width="200"
         height="200"
         x="400"
         y="-5.9094692e-08" />
      <path
         id="path1593"
         style="fill:#0066ff;fill-opacity:1;stroke-width:2.85529;stroke-linecap:round;stroke-opacity:0.995984"
         d="M 454.30078,0 476.94922,83.6875 454.75,0 Z M 476.94922,83.6875 499.59766,0 h -0.44922 z m 0,0 L 561.05664,0 h -0.83789 z m 0,0 L 600,51.044922 v -0.658203 z m 0,0 L 600,116.98828 v -0.6582 z m 0,0 L 592.68164,200 h 1.16406 z m 0,0 L 507.80469,200 h 0.62304 z m 0,0 L 445.4707,200 h 0.62305 z m 0,0 L 400,160.25195 v 0.77149 z m 0,0 L 400,104.09961 v 0.41211 z m 0,0 L 400,62.863281 v 0.41211 z m 0,0 L 400,6.3515625 v 0.7714844 z" />
      <path
         id="path1595"
         style="fill:#5599ff;fill-opacity:1;stroke-width:2.85529;stroke-linecap:round;stroke-opacity:0.995984"
         d="M 400,0 V 7.1230469 L 476.94922,83.6875 454.75,0 Z M 476.94922,83.6875 561.05664,0 h -61.9082 z m 0,0 L 600,116.98828 V 50.386719 Z m 0,0 L 507.80469,200 h 86.04101 z m 0,0 L 400,160.25195 V 200 h 46.09375 z m 0,0 L 400,62.863281 v 41.648439 z" />
      <g
         inkscape:label="snegle"
         style="display:inline;opacity:1"
         transform="matrix(2.223842,0,0,2.2486663,196.59596,40.058686)"
         id="g1421">
        <g
           style="clip-rule:evenodd;fill-rule:evenodd;stroke-linecap:round;stroke-linejoin:round"
           id="g1399"
           opacity="1"
           transform="matrix(0.04284456,0.00213177,-0.00214376,0.04308559,82.39137,-18.60132)">
          <path
             id="path1375"
             stroke-linejoin="round"
             opacity="1"
             fill-opacity="0"
             stroke-linecap="round"
             fill="#335289"
             d="m 1779.86,1204 c 0,-3.23 0,-6.45 0,-9.67"
             stroke-width="30.95"
             stroke="#000000" />
          <path
             id="path1377"
             stroke-linejoin="round"
             opacity="1"
             fill-opacity="0"
             stroke-linecap="round"
             fill="#335289"
             d="m 1799.19,1155.67 c -10.03,5.01 -7.38,-0.06 -9.67,-7.25 -10.58,-33.25 -21.3,-66.5 -33.83,-99.07 -6.85,-17.82 -19.49,-33.01 -26.58,-50.744 -6.53,-16.333 -8.32,-34.272 -14.5,-50.743 -4.07,-10.877 -12.71,-19.445 -19.33,-28.996 -11.56,-16.706 -23.07,-33.538 -33.83,-50.744 -4.93,-7.892 -6.58,-10.133 -14.49,-16.914 -2.21,-1.89 -5.2,-2.779 -7.25,-4.833 -1.28,-1.273 3.22,1.611 4.83,2.417"
             stroke-width="30.95"
             stroke="#000000" />
          <path
             id="path1379"
             stroke-linejoin="round"
             opacity="1"
             fill-opacity="0"
             stroke-linecap="round"
             fill="#335289"
             d="m 1820.93,1126.67 c -1.61,-1.61 -4.25,-2.63 -4.83,-4.83 -9.17,-35.17 -16.14,-70.87 -24.16,-106.32 -10.11,-44.625 -20.96,-94.075 -50.75,-130.482 -10.01,-12.24 -25.79,-24.821 -38.66,-33.829 -2.95,-2.066 -6.78,-2.671 -9.66,-4.833 -8.05,-6.037 -10.71,-15.018 -19.33,-19.331"
             stroke-width="30.95"
             stroke="#000000" />
          <path
             id="path1381"
             stroke-linejoin="round"
             opacity="1"
             fill-opacity="0"
             stroke-linecap="round"
             fill="#335289"
             d="m 1859.6,1136.34 c 0.8,-12.08 5.96,-24.67 2.41,-36.25 -12.05,-39.33 -32.94,-75.41 -48.33,-113.565 -10.09,-25.045 -16.88,-51.32 -24.16,-77.324 -3.32,-11.864 -5.04,-24.123 -7.25,-36.245 -0.59,-3.267 -0.71,-6.818 -2.41,-9.665 -2.08,-3.454 -6.82,-4.402 -9.67,-7.249"
             stroke-width="30.95"
             stroke="#000000" />
          <path
             id="path1383"
             stroke-linejoin="round"
             opacity="1"
             fill-opacity="0"
             stroke-linecap="round"
             fill="#335289"
             d="m 1891.01,1131.51 c 0,-3.23 0.88,-6.57 0,-9.67 -8.82,-30.86 -19.63,-61.12 -29,-91.82 -7.89,-25.87 -18.84,-64.329 -24.16,-91.822 -4.86,-25.082 -4.49,-53.309 -14.5,-77.324 -8.74,-20.986 -29,-33.362 -29,-57.992"
             stroke-width="30.95"
             stroke="#000000" />
          <path
             id="path1385"
             stroke-linejoin="round"
             opacity="1"
             fill-opacity="0"
             stroke-linecap="round"
             fill="#335289"
             d="m 1917.59,1117.01 c -2.42,-1.61 -6.19,-2.13 -7.25,-4.84 -13.65,-34.86 -24.06,-70.91 -36.25,-106.31 -11.32,-32.893 -27.45,-65.37 -36.24,-99.075 -6.41,-24.57 -7.86,-49.554 -19.33,-72.49"
             stroke-width="30.95"
             stroke="#000000" />
          <path
             id="path1387"
             stroke-linejoin="round"
             opacity="1"
             fill-opacity="0"
             stroke-linecap="round"
             fill="#335289"
             d="m 1936.92,1121.84 c -0.81,-1.61 -2.19,-3.05 -2.42,-4.83 -3.82,-30.54 -4.25,-61.53 -9.66,-91.82 -3.27,-18.31 -12.88,-35.011 -16.92,-53.163 -4.11,-18.507 -9.46,-36.8 -12.08,-55.577 -6.83,-48.979 2.42,-98.326 2.42,-147.397"
             stroke-width="30.95"
             stroke="#000000" />
          <path
             id="path1389"
             stroke-linejoin="round"
             opacity="1"
             fill-opacity="0"
             stroke-linecap="round"
             fill="#335289"
             d="m 1953.83,1119.42 c -0.8,-1.61 -2.12,-3.05 -2.41,-4.83 -5.36,-32.13 -10.24,-64.35 -14.5,-96.65 -5.62,-42.513 5.12,-81.477 12.08,-123.237 3.33,-20.004 8.32,-40.156 7.25,-60.408 -0.27,-5.151 -5.05,-9.776 -9.67,-12.082"
             stroke-width="30.95"
             stroke="#000000" />
          <path
             id="path1391"
             stroke-linejoin="round"
             opacity="1"
             fill-opacity="0"
             stroke-linecap="round"
             fill="#335289"
             d="m 1992.49,1095.26 c -2.54,-5.09 -1.18,-11.35 -2.41,-16.91 -7.21,-32.42 -15.04,-64.73 -24.17,-96.658 -6.59,-23.087 -22.97,-39.03 -36.24,-57.992 -7.22,-10.308 -14.89,-20.495 -24.16,-28.997 -7.61,-6.97 -16.87,-12.037 -24.17,-19.33 -9.83,-9.834 -16.14,-22.569 -28.99,-28.997"
             stroke-width="30.95"
             stroke="#000000" />
          <path
             id="path1393"
             stroke-linejoin="round"
             opacity="1"
             fill-opacity="0"
             stroke-linecap="round"
             fill="#335289"
             d="m 1982.83,1124.26 c -6.66,-6.66 -9.67,-19.46 -9.67,-29 0,-33.03 1.22,-66.06 2.42,-99.07 0.76,-20.99 0.9,-42.192 4.83,-62.825 1.43,-7.506 4.97,-14.454 7.25,-21.747 1.82,-5.833 5.76,-22.752 9.67,-28.996 2.73,-4.374 10.51,-6.995 9.66,-12.082 -0.59,-3.553 -2.83,-6.668 -4.83,-9.666 -1.26,-1.895 -3.22,-3.221 -4.83,-4.832"
             stroke-width="30.95"
             stroke="#000000" />
          <path
             id="path1395"
             stroke-linejoin="round"
             opacity="1"
             fill-opacity="0"
             stroke-linecap="round"
             fill="#335289"
             d="m 1854.76,1167.75 c -14.35,-28.71 -17.51,-61.85 -28.99,-91.82 -7.44,-19.41 -23.49,-34.34 -36.25,-50.74 -27.29,-35.088 -45.03,-78.095 -86.99,-99.074"
             stroke-width="30.95"
             stroke="#000000" />
          <path
             id="path1397"
             stroke-linejoin="round"
             opacity="1"
             fill-opacity="0"
             stroke-linecap="round"
             fill="#335289"
             d="m 1837.85,1148.42 c -8.22,4.11 -19.29,-1.67 -26.58,-7.25 -7.71,-5.89 -11.88,-15.54 -19.33,-21.75 -7.22,-6.01 -16.11,-9.66 -24.17,-14.49 -23.55,-14.14 -45.87,-29.16 -67.65,-45.91 -10.59,-8.14 -18.37,-13.34 -24.17,-26.58 -8.13,-18.58 -8.47,-52.145 -9.66,-72.495 -0.93,-15.762 -0.23,-28.268 -16.92,-33.829"
             stroke-width="30.95"
             stroke="#000000" />
        </g>
        <path
           style="clip-rule:evenodd;fill:#e2e221;fill-opacity:1;fill-rule:evenodd"
           id="path1401"
           stroke-linejoin="round"
           opacity="1"
           stroke-linecap="round"
           fill="#e0cc47"
           d="m 115.81083,31.355188 c 0,0 -8.12619,1.233092 -8.46246,-6.035921 -0.33622,-7.269141 0.68519,-16.8882446 9.23314,-21.9217436 5.20336,-3.0639687 17.37077,-9.3777948 25.07044,8.8897536 7.70011,18.267484 3.59622,22.513821 -3.69032,21.183766 -4.52754,-0.826508 -22.1508,-2.115855 -22.1508,-2.115855 z"
           stroke-width="0.645271"
           stroke="#000000" />
        <path
           style="clip-rule:evenodd;fill:#e8e947;fill-opacity:1;fill-rule:evenodd"
           id="path1403"
           stroke-linejoin="round"
           opacity="1"
           stroke-linecap="round"
           fill="#e0cc47"
           d="m 116.64241,31.78659 c 0,0 -5.82829,-13.00143 -2.21941,-19.294442 3.60885,-6.2930568 11.73705,-11.192985 16.65502,-5.8778621 4.99131,5.3948341 4.87646,5.7607461 6.13754,13.7964361 0.71874,4.580235 -2.04271,12.999741 -2.04271,12.999741 z"
           stroke-width="0.645271"
           stroke="#000000" />
        <path
           id="path1405"
           style="opacity:1;fill:#4177ad;fill-opacity:1;stroke:#000000;stroke-width:0.645;stroke-linecap:round;stroke-miterlimit:4;stroke-dasharray:none;stroke-opacity:0.886275"
           d="m 106.85742,29.015625 c -0.33601,0.0015 -0.62489,0.01958 -0.85937,0.05664 -4.56952,0.722648 -4.83188,17.18673 -3.50977,24.427734 h 68.29492 c 0.87068,-3.334038 -0.39383,-19.3028 -1.68945,-20.742188 -1.39647,-1.550977 -8.29224,-0.09923 -12.72461,0.148438 -4.43278,0.247219 -22.19404,0.297683 -25.59375,0.05078 -3.18721,-0.231873 -18.87779,-3.964355 -23.91797,-3.941406 z" />
        <g
           style="clip-rule:evenodd;fill-rule:evenodd;stroke-linecap:round;stroke-linejoin:round"
           id="g1411"
           opacity="1"
           transform="matrix(0.04284456,0.00213177,-0.00214376,0.04308559,82.39137,-18.60132)">
          <path
             id="path1407"
             stroke-linejoin="round"
             opacity="1"
             stroke-linecap="round"
             fill="#ffffff"
             d="m 1762.96,1154.35 c 8.42,-21.05 40.84,-27.88 72.42,-15.26 31.58,12.63 50.37,39.92 41.96,60.97 -8.42,21.04 -40.84,27.87 -72.42,15.25 -31.58,-12.62 -50.37,-39.92 -41.96,-60.96 z"
             stroke-width="1"
             stroke="#000000" />
          <path
             id="path1409"
             stroke-linejoin="round"
             opacity="1"
             stroke-linecap="round"
             fill="#000000"
             d="m 1852.25,1191.8 c -3.32,12.02 -19.98,16.97 -37.21,11.05 -17.22,-5.93 -28.49,-20.47 -25.17,-32.49 3.32,-12.02 19.98,-16.96 37.21,-11.04 17.22,5.92 28.49,20.46 25.17,32.48 z"
             stroke-width="1"
             stroke-opacity="0"
             stroke="#847566" />
        </g>
        <path
           style="clip-rule:evenodd;fill-rule:evenodd"
           id="path1413"
           stroke-linejoin="round"
           opacity="1"
           stroke-linecap="round"
           fill="none"
           d="m 156.51466,40.668705 c 1.52816,7.545271 14.03158,12.783778 9.42306,-1.107233"
           stroke-width="1.61748"
           stroke="#000000" />
        <g
           style="clip-rule:evenodd;fill-rule:evenodd;stroke-linecap:round;stroke-linejoin:round"
           transform="matrix(-0.02024837,0.03804176,-0.03781872,-0.02034053,245.94051,-9.1074329)"
           opacity="1"
           id="g1419">
          <path
             stroke="#000000"
             stroke-width="1"
             d="m 1762.96,1154.35 c 8.42,-21.05 40.84,-27.88 72.42,-15.26 31.58,12.63 50.37,39.92 41.96,60.97 -8.42,21.04 -40.84,27.87 -72.42,15.25 -31.58,-12.62 -50.37,-39.92 -41.96,-60.96 z"
             fill="#ffffff"
             stroke-linecap="round"
             opacity="1"
             stroke-linejoin="round"
             id="path1415" />
          <path
             stroke="#847566"
             stroke-opacity="0"
             stroke-width="1"
             d="m 1852.25,1191.8 c -3.32,12.02 -19.98,16.97 -37.21,11.05 -17.22,-5.93 -28.49,-20.47 -25.17,-32.49 3.32,-12.02 19.98,-16.96 37.21,-11.04 17.22,5.92 28.49,20.46 25.17,32.48 z"
             fill="#000000"
             stroke-linecap="round"
             opacity="1"
             stroke-linejoin="round"
             id="path1417" />
        </g>
      </g>
    </g>
    <g
       inkscape:label="snegle-ovenfra"
       transform="rotate(90,279.25,190.75001)"
       id="g1954">
      <rect
         style="fill:#4177ad;fill-opacity:1;stroke:#000000;stroke-width:1;stroke-linecap:round;stroke-miterlimit:4;stroke-dasharray:none;stroke-opacity:0.886275"
         id="rect1681"
         width="31"
         height="69"
         x="100.5"
         y="100.5"
         rx="2.90625"
         ry="5.9142857" />
      <ellipse
         ry="19.5"
         rx="15.5"
         cy="147.875"
         cx="116"
         id="path1679-0"
         style="display:inline;fill:#e8e947;fill-opacity:1;stroke:#000000;stroke-width:1;stroke-linecap:round;stroke-miterlimit:4;stroke-dasharray:none;stroke-opacity:0.886275" />
      <path
         style="fill:none;fill-opacity:1;stroke:#000000;stroke-width:1px;stroke-linecap:butt;stroke-linejoin:miter;stroke-opacity:1"
         d="m 123.24573,108.5625 c 0.23642,-1.79816 1.8125,-0.28204 1.8125,-2.1875"
         id="path1698"
         sodipodi:nodetypes="cc" />
      <path
         sodipodi:nodetypes="cc"
         id="path1709"
         d="m 106.66161,108.30285 c -0.23642,-1.79816 -1.8125,-0.28204 -1.8125,-2.1875"
         style="fill:none;fill-opacity:1;stroke:#000000;stroke-width:1px;stroke-linecap:butt;stroke-linejoin:miter;stroke-opacity:1" />
      <path
         style="fill:none;stroke:#000000;stroke-width:1px;stroke-linecap:butt;stroke-linejoin:miter;stroke-opacity:1"
         d="m 109.63545,112.60155 c -0.38269,0.23772 -0.78739,0.43587 -1.14905,0.70711 -0.10952,0.0821 -0.10974,0.22494 -0.17677,0.26516 -0.19374,0.11624 -0.56114,0.28057 -0.70711,0.35356 -0.14108,0.0705 -0.49669,0.33243 -0.61872,0.0884 -0.0655,-0.13094 0,-0.46908 0,-0.61871"
         id="path1862" />
      <path
         style="fill:none;stroke:#000000;stroke-width:1px;stroke-linecap:butt;stroke-linejoin:miter;stroke-opacity:1"
         d="m 115.3807,111.98283 c -0.73267,-0.17602 0.24435,-2.67246 0,-2.91681 -0.13733,-0.13733 -0.44372,-0.17855 -0.61872,-0.35356 -0.15922,-0.15921 -0.48712,-0.44194 -0.70711,-0.44194"
         id="path1877" />
      <path
         style="fill:none;stroke:#000000;stroke-width:1px;stroke-linecap:butt;stroke-linejoin:miter;stroke-opacity:1"
         d="m 119.62334,112.07122 c -0.0537,0.33837 0.67056,1.26817 0.79549,1.32583 0.30501,0.14077 0.64495,0.18962 0.97227,0.26516 0.0861,0.0199 0.20267,0.0625 0.26517,0 0.19333,-0.19333 0.10291,-0.30873 0.17677,-0.53033 0.0128,-0.0383 0.51141,-0.38515 0.53033,-0.44194 0.026,-0.078 0,-0.2607 0,-0.35355"
         id="path1879" />
      <path
         style="fill:none;stroke:#000000;stroke-width:1px;stroke-linecap:butt;stroke-linejoin:miter;stroke-opacity:1"
         d="m 119.80011,109.68474 c -0.82428,-1.48057 -1.03355,-2.84848 -0.61872,-4.50781 0.007,-0.0266 0.97228,-0.1556 0.97228,-0.44194"
         id="path1883" />
      <path
         style="fill:none;stroke:#000000;stroke-width:1px;stroke-linecap:butt;stroke-linejoin:miter;stroke-opacity:1"
         d="m 125.01503,110.56862 c 0.33371,0.66744 0.10288,0.44303 0.7071,0.79549 0.0441,0.0257 0.73609,0.49443 0.97227,0.44195 0.16771,-0.0373 0.31151,-0.15337 0.44195,-0.26517 0.25521,-0.21876 0.10618,-0.38024 0.26516,-0.61872 0.16588,-0.24882 0.55427,-0.47323 0.61872,-0.79549 0.0173,-0.0867 -0.028,-0.18131 0,-0.26517 0.0208,-0.0625 0.14731,-0.0295 0.17678,-0.0884 0.16801,-0.33603 0.001,-0.70821 0.26516,-0.97227"
         id="path1885" />
      <path
         style="fill:none;stroke:#000000;stroke-width:1px;stroke-linecap:butt;stroke-linejoin:miter;stroke-opacity:1"
         d="m 124.13114,114.81126 c -0.12885,0.76619 0.24491,0.95877 0.7955,1.32583 0.0347,0.0231 0.0467,0.0884 0.0884,0.0884 0.53894,0 1.79683,-0.6536 2.2097,-1.14904 0.39,-0.468 0.11858,-0.64891 0.44195,-0.97228"
         id="path1887" />
      <path
         style="fill:none;stroke:#000000;stroke-width:1px;stroke-linecap:butt;stroke-linejoin:miter;stroke-opacity:1"
         d="m 121.83304,118.52357 c -0.17677,-0.11785 -0.39309,-0.19136 -0.53033,-0.35355 -0.51214,-0.60527 -0.66142,-1.45692 -1.23743,-2.03293 -0.31057,-0.31057 -1.10527,0.10325 -1.32583,0.17677 -0.14844,0.0495 -0.0884,-0.19868 -0.0884,0"
         id="path1889" />
      <path
         style="fill:none;stroke:#000000;stroke-width:1px;stroke-linecap:butt;stroke-linejoin:miter;stroke-opacity:1"
         d="m 113.87809,116.57903 c -0.43021,0.17516 -1.51355,0.82287 -1.67938,1.23743 -0.46252,1.1563 0.44425,0.10043 -0.53033,1.23744 -0.25,0.29167 -0.76603,-0.0589 -1.14904,-0.0884 -0.0588,-0.005 -0.15043,0.0527 -0.17678,0 -0.0263,-0.0527 0.0143,-0.11961 0,-0.17677 -0.0485,-0.19401 -0.18918,-0.20159 -0.26517,-0.35356 -0.10727,-0.21455 -0.0884,-0.46518 -0.0884,-0.7071"
         id="path1891" />
      <path
         style="fill:none;stroke:#000000;stroke-width:1px;stroke-linecap:butt;stroke-linejoin:miter;stroke-opacity:1"
         d="m 112.11033,112.9551 c -0.25784,0.26446 0.19743,0.94129 0,1.23744 -0.0462,0.0693 -0.14583,0.0994 -0.17678,0.17678 -0.0503,0.12562 0.0862,0.28809 -0.0884,0.35355 -0.1904,0.0714 -0.90554,0.33189 -1.14905,0.0884 -0.0208,-0.0208 0.0208,-0.0676 0,-0.0884 -0.0174,-0.0174 -0.52113,0 -0.26516,0"
         id="path1893" />
      <path
         style="fill:none;stroke:#000000;stroke-width:1px;stroke-linecap:butt;stroke-linejoin:miter;stroke-opacity:1"
         d="m 110.07739,109.77312 c -0.48588,-0.0622 -1.49717,-0.16049 -1.67937,-0.7071 -0.018,-0.0538 0.0187,-0.36288 -0.17678,-0.26517 -0.43859,0.2193 -0.82496,0.53033 -1.23744,0.7955 -0.0894,0.0574 -0.17015,0.12927 -0.26516,0.17677 -0.0527,0.0264 -0.17678,-0.0589 -0.17678,0 0,0.0295 0.086,0.0294 0.0884,0 0.0398,-0.48858 0.0209,-0.98018 0.0314,-1.47027"
         id="path1895" />
      <path
         style="fill:none;stroke:#000000;stroke-width:1px;stroke-linecap:butt;stroke-linejoin:miter;stroke-opacity:1"
         d="m 112.02194,106.9447 c -0.79567,-0.59917 -0.99586,-1.76896 -1.76777,-2.38649 -0.20405,-0.16324 -0.53033,-0.28683 -0.53033,0.0884"
         id="path1897" />
      <path
         style="fill:none;stroke:#000000;stroke-width:1px;stroke-linecap:butt;stroke-linejoin:miter;stroke-opacity:1"
         d="m 105.39281,111.89444 c -0.11785,0.0884 -0.24269,0.16816 -0.35355,0.26517 -0.50738,0.44396 -0.36765,0.18709 -0.44194,0.70711 -0.0167,0.11666 0.0527,0.24814 0,0.35355 -0.0186,0.0373 -0.0783,0.048 -0.0884,0.0884 -0.0137,0.0548 0,1.21448 0,0.97227"
         id="path1899" />
      <path
         style="fill:none;stroke:#000000;stroke-width:1px;stroke-linecap:butt;stroke-linejoin:miter;stroke-opacity:1"
         d="m 106.89541,117.02097 c -1.58885,0.72868 -1.14948,0.67736 -2.29809,-0.0884 -0.053,-0.0354 -0.22097,0.0442 -0.26517,0 -0.0208,-0.0208 0.0208,-0.0675 0,-0.0884 -0.10595,-0.10595 -0.35355,0.14429 -0.35355,-0.0884"
         id="path1901" />
      <path
         style="fill:none;stroke:#000000;stroke-width:1px;stroke-linecap:butt;stroke-linejoin:miter;stroke-opacity:1"
         d="m 115.91103,118.34679 c 0.18517,1.23353 2.82842,1.9821 2.82842,0.35356"
         id="path1903" />
      <path
         style="fill:none;stroke:#000000;stroke-width:1px;stroke-linecap:butt;stroke-linejoin:miter;stroke-opacity:1"
         d="m 116.44136,115.87192 c 0.0295,-0.26516 -0.003,-0.54476 0.0884,-0.79549 0.0363,-0.0998 0.19005,-0.10167 0.26517,-0.17678 0.0751,-0.0751 0.12927,-0.17015 0.17678,-0.26517 0.0532,-0.10641 0.04,-0.5703 0.0884,-0.61872 0.061,-0.061 1.16439,-0.61105 0.97228,-0.7071 -0.0589,-0.0295 -0.15427,0.17677 -0.0884,0.17677 0.0833,0 0.11785,-0.11785 0.17677,-0.17677"
         id="path1905" />
      <path
         style="fill:none;stroke:#000000;stroke-width:1px;stroke-linecap:butt;stroke-linejoin:miter;stroke-opacity:1"
         d="m 123.60081,104.82338 c 0.76801,0.12331 1.3581,-1.48196 2.12132,-1.59099 0.14584,-0.0208 0.29663,0.0242 0.44194,0 0.0411,-0.007 0.0511,-0.0698 0.0884,-0.0884 0.26729,-0.13365 0.83019,-0.33787 0.97227,0.0884 0.0186,0.0559 -0.0186,0.12087 0,0.17677 0.0594,0.17831 0.35356,0.21003 0.35356,0.35356"
         id="path1907" />
      <path
         style="fill:none;stroke:#000000;stroke-width:1px;stroke-linecap:butt;stroke-linejoin:miter;stroke-opacity:1"
         d="m 127.66668,107.03309 c 0.60458,-0.22103 1.53275,-0.0894 1.94454,-0.70711 0.0731,-0.10971 -0.0412,-0.4067 0,-0.53033 0.0574,-0.17214 0.17574,-0.2662 0,-0.44194"
         id="path1909" />
      <path
         style="fill:none;stroke:#000000;stroke-width:1px;stroke-linecap:butt;stroke-linejoin:miter;stroke-opacity:1"
         d="m 124.66147,118.61196 c 0.14732,0 0.29814,-0.032 0.44194,0 0.12863,0.0286 0.23018,0.13051 0.35356,0.17678 0.39938,0.14977 0.72505,0.17677 1.14905,0.17677 0.11785,0 0.24814,0.0527 0.35355,0 0.0644,-0.0322 0.48175,-0.78788 0.70711,-0.97227 0.43379,-0.35492 0.79549,-0.38221 0.79549,-0.88388"
         id="path1911" />
      <path
         style="fill:none;stroke:#000000;stroke-width:1px;stroke-linecap:butt;stroke-linejoin:miter;stroke-opacity:1"
         d="m 112.64066,110.21507 c -0.48531,-0.54893 -1.21764,-0.70895 -1.76777,-1.14905 -0.0651,-0.0521 -0.12472,-0.24185 -0.17678,-0.17678 -0.22466,0.28083 -0.41248,0.58925 -0.61872,0.88388"
         id="path1913" />
      <path
         style="fill:none;stroke:#000000;stroke-width:1px;stroke-linecap:butt;stroke-linejoin:miter;stroke-opacity:1"
         d="m 109.72384,104.64661 c -0.85442,-0.11785 -1.73394,-0.11661 -2.56326,-0.35356 -0.32536,-0.093 -0.57859,-0.68036 -0.88388,-0.88389 -0.51849,-0.34565 -1.46813,-0.59928 -1.76777,0 -0.0373,0.0745 -0.18717,0.0941 -0.17678,0.17678 0.10733,0.85385 0.34464,1.68627 0.51696,2.52941"
         id="path1915" />
      <ellipse
         style="display:inline;fill:url(#radialGradient1925);fill-opacity:1;stroke:#000000;stroke-width:1;stroke-linecap:round;stroke-miterlimit:4;stroke-dasharray:none;stroke-opacity:0.886275"
         id="ellipse1917"
         cx="116"
         cy="147.875"
         rx="15.5"
         ry="19.5" />
    </g>
  </g>
</svg>
